<svg width="21" height="26" viewBox="0 0 21 26" fill="none" xmlns="http://www.w3.org/2000/svg">
<path fill-rule="evenodd" clip-rule="evenodd" d="M2.58333 0C1.89819 0 1.24111 0.272172 0.756641 0.756641C0.272172 1.24111 0 1.89819 0 2.58333V21.9583C0 22.986 0.408258 23.9717 1.13496 24.6984C1.86166 25.4251 2.84729 25.8333 3.875 25.8333H19.375C19.7176 25.8333 20.0461 25.6972 20.2883 25.455C20.5306 25.2128 20.6667 24.8842 20.6667 24.5417C20.6667 24.1991 20.5306 23.8706 20.2883 23.6283C20.0461 23.3861 19.7176 23.25 19.375 23.25H16.7917V20.6667H19.375C19.7176 20.6667 20.0461 20.5306 20.2883 20.2883C20.5306 20.0461 20.6667 19.7176 20.6667 19.375V2.58333C20.6667 1.89819 20.3945 1.24111 19.91 0.756641C19.4256 0.272172 18.7685 0 18.0833 0H7.75V20.6667H14.2083V23.25H3.875C3.53243 23.25 3.20389 23.1139 2.96165 22.8717C2.71942 22.6294 2.58333 22.3009 2.58333 21.9583C2.58333 21.6158 2.71942 21.2872 2.96165 21.045C3.20389 20.8028 3.53243 20.6667 3.875 20.6667H5.16667V0H2.58333Z" fill="black"/>
</svg>
